# xmcd CD database file
#
# Track frame offsets:
#	150
#	19715
#	39667
#
# Disc length: 730 seconds
#
# Revision: 2
# Processed by: cddbd v1.5PL3 Copyright (c) Steve Scherf et al.
# Submitted via: CDex 1.50
#
DISCID=1b02d803
DTITLE=the pillows - ターミナル・ヘヴンズ・ロック
DYEAR=2003
DGENRE=Rock
TTITLE0=ターミナル・ヘヴンズ・ロック
TTITLE1=Sick Vibration
TTITLE2=OVER AMP
EXTD=YEAR: 2003
EXTT0=
EXTT1=
EXTT2=
PLAYORDER=
